<svg xmlns="http://www.w3.org/2000/svg" xmlns:xlink="http://www.w3.org/1999/xlink" width="526" height="191" contentStyleType="text/css" preserveAspectRatio="none" version="1.1" viewBox="0 0 526 191" zoomAndPan="magnify" style="width:526px;height:191px;background:#fff"><g><rect width="228" height="108.047" x="10" y="14" fill="#F1F1F1" rx="5" ry="5" style="stroke:#f1f1f1;stroke-width:1.5"/><text x="15" y="30.533" fill="#000" font-family="sans-serif" font-size="14" font-weight="bold" lengthAdjust="spacing" textLength="38">name</text><text x="133" y="30.533" fill="#000" font-family="sans-serif" font-size="14" font-style="italic" lengthAdjust="spacing" textLength="87">Ruleset name</text><line x1="128" x2="128" y1="14" y2="35.609" style="stroke:#000;stroke-width:1"/><line x1="10" x2="238" y1="35.609" y2="35.609" style="stroke:#000;stroke-width:1"/><text x="15" y="52.143" fill="#000" font-family="sans-serif" font-size="14" font-weight="bold" lengthAdjust="spacing" textLength="54">version</text><text x="133" y="52.143" fill="#000" font-family="sans-serif" font-size="14" font-style="italic" lengthAdjust="spacing" textLength="97">Ruleset version</text><line x1="128" x2="128" y1="35.609" y2="57.219" style="stroke:#000;stroke-width:1"/><line x1="10" x2="238" y1="57.219" y2="57.219" style="stroke:#000;stroke-width:1"/><text x="15" y="73.752" fill="#000" font-family="sans-serif" font-size="14" font-weight="bold" lengthAdjust="spacing" textLength="108">schemaVersion</text><text x="133" y="73.752" fill="#000" font-family="sans-serif" font-size="14" font-style="italic" lengthAdjust="spacing" textLength="100">Schema version</text><line x1="128" x2="128" y1="57.219" y2="78.828" style="stroke:#000;stroke-width:1"/><line x1="10" x2="238" y1="78.828" y2="78.828" style="stroke:#000;stroke-width:1"/><text x="15" y="95.361" fill="#000" font-family="sans-serif" font-size="14" font-weight="bold" lengthAdjust="spacing" textLength="45">rules?</text><line x1="128" x2="128" y1="78.828" y2="100.438" style="stroke:#000;stroke-width:1"/><line x1="10" x2="238" y1="100.438" y2="100.438" style="stroke:#000;stroke-width:1"/><text x="15" y="116.971" fill="#000" font-family="sans-serif" font-size="14" font-weight="bold" lengthAdjust="spacing" textLength="59">probes?</text><line x1="128" x2="128" y1="100.438" y2="122.047" style="stroke:#000;stroke-width:1"/><rect width="228" height="108.047" x="10" y="14" fill="none" rx="5" ry="5" style="stroke:#000;stroke-width:1.5"/><rect width="48" height="86.438" x="293.5" y="10" fill="#F1F1F1" rx="5" ry="5" style="stroke:#f1f1f1;stroke-width:1.5"/><text x="298.5" y="26.533" fill="#000" font-family="sans-serif" font-size="14" font-style="italic" lengthAdjust="spacing" textLength="37">rule A</text><line x1="293.5" x2="341.5" y1="31.609" y2="31.609" style="stroke:#000;stroke-width:1"/><text x="298.5" y="48.143" fill="#000" font-family="sans-serif" font-size="14" font-style="italic" lengthAdjust="spacing" textLength="37">rule B</text><line x1="293.5" x2="341.5" y1="53.219" y2="53.219" style="stroke:#000;stroke-width:1"/><text x="298.5" y="69.752" fill="#000" font-family="sans-serif" font-size="14" font-style="italic" lengthAdjust="spacing" textLength="38">rule C</text><line x1="293.5" x2="341.5" y1="74.828" y2="74.828" style="stroke:#000;stroke-width:1"/><text x="298.5" y="91.361" fill="#000" font-family="sans-serif" font-size="14" lengthAdjust="spacing" textLength="14">…</text><rect width="48" height="86.438" x="293.5" y="10" fill="none" rx="5" ry="5" style="stroke:#000;stroke-width:1.5"/><rect width="85" height="64.828" x="275" y="114.5" fill="#F1F1F1" rx="5" ry="5" style="stroke:#f1f1f1;stroke-width:1.5"/><text x="280" y="131.033" fill="#000" font-family="sans-serif" font-size="14" font-style="italic" font-weight="bold" lengthAdjust="spacing" textLength="51">probe 1</text><line x1="336" x2="336" y1="114.5" y2="136.109" style="stroke:#000;stroke-width:1"/><line x1="275" x2="360" y1="136.109" y2="136.109" style="stroke:#000;stroke-width:1"/><text x="280" y="152.643" fill="#000" font-family="sans-serif" font-size="14" font-style="italic" font-weight="bold" lengthAdjust="spacing" textLength="51">probe 2</text><text x="341" y="152.643" fill="#000" font-family="sans-serif" font-size="14" lengthAdjust="spacing" textLength="14">…</text><line x1="336" x2="336" y1="136.109" y2="157.719" style="stroke:#000;stroke-width:1"/><line x1="275" x2="360" y1="157.719" y2="157.719" style="stroke:#000;stroke-width:1"/><text x="280" y="174.252" fill="#000" font-family="sans-serif" font-size="14" font-weight="bold" lengthAdjust="spacing" textLength="15">…</text><text x="341" y="174.252" fill="#000" font-family="sans-serif" font-size="14" lengthAdjust="spacing" textLength="14">…</text><line x1="336" x2="336" y1="157.719" y2="179.328" style="stroke:#000;stroke-width:1"/><rect width="85" height="64.828" x="275" y="114.5" fill="none" rx="5" ry="5" style="stroke:#000;stroke-width:1.5"/><rect width="117" height="64.828" x="397" y="92.5" fill="#F1F1F1" rx="5" ry="5" style="stroke:#f1f1f1;stroke-width:1.5"/><text x="402" y="109.033" fill="#000" font-family="sans-serif" font-size="14" font-style="italic" lengthAdjust="spacing" textLength="107">implementation 1</text><line x1="397" x2="514" y1="114.109" y2="114.109" style="stroke:#000;stroke-width:1"/><text x="402" y="130.643" fill="#000" font-family="sans-serif" font-size="14" font-style="italic" lengthAdjust="spacing" textLength="107">implementation 2</text><line x1="397" x2="514" y1="135.719" y2="135.719" style="stroke:#000;stroke-width:1"/><text x="402" y="152.252" fill="#000" font-family="sans-serif" font-size="14" lengthAdjust="spacing" textLength="14">…</text><rect width="117" height="64.828" x="397" y="92.5" fill="none" rx="5" ry="5" style="stroke:#000;stroke-width:1.5"/><path style="stroke:#000;stroke-width:1;stroke-dasharray:3,3" fill="none" d="M226,89 L239,89 C255.9185,89 273.1587,81.9314 287.1135,74.0585"/><path style="stroke:#000;stroke-width:1" fill="#000" d="M288.6743,76.6869 L289.0848,72.8879 L285.5527,71.4302 L293.6844,70.1565 L288.6743,76.6869"/><ellipse style="stroke:#000;stroke-width:1" cx="226" cy="89" fill="#000" rx="3" ry="3"/><path style="stroke:#000;stroke-width:1;stroke-dasharray:3,3" fill="none" d="M348,125 L361,125 C370.2715,125 380.0574,125 389.6727,125"/><path style="stroke:#000;stroke-width:1" fill="#000" d="M389.6727,128.0647 L391.9712,125 L389.6727,121.9353 L397.3344,125 L389.6727,128.0647"/><ellipse style="stroke:#000;stroke-width:1" cx="348" cy="125" fill="#000" rx="3" ry="3"/><path style="stroke:#000;stroke-width:1;stroke-dasharray:3,3" fill="none" d="M226,111 L239,111 C248.8645,111 258.8383,113.403 268.2065,116.9674"/><path style="stroke:#000;stroke-width:1" fill="#000" d="M267.0339,119.781 L270.3167,117.8468 L269.3791,114.1538 L275.2406,119.8989 L267.0339,119.781"/><ellipse style="stroke:#000;stroke-width:1" cx="226" cy="111" fill="#000" rx="3" ry="3"/></g></svg>